<svg xmlns="http://www.w3.org/2000/svg" viewBox="0 0 1920 96.41"><path d="M0 95V7.71h30.43c9.76 0 17.5 2.4 23.24 7.19 5.74 4.79 8.6 11.29 8.6 19.51 0 8.13-2.87 14.57-8.6 19.32-5.73 4.75-13.48 7.12-23.24 7.12H12.97V95H0zm12.97-44.8h17.46c5.74 0 10.27-1.41 13.61-4.24s5.01-6.68 5.01-11.55c0-4.88-1.67-8.73-5.01-11.55-3.34-2.83-7.87-4.24-13.61-4.24H12.97V50.2zM118.11 95l-.9-10.65a23.03 23.03 0 0 1-9.18 8.92 27.26 27.26 0 0 1-13.16 3.14c-6.51 0-11.81-1.8-15.92-5.39-4.11-3.59-6.17-8.43-6.17-14.5 0-6.76 2.66-12.13 7.96-16.11 5.3-3.98 12.66-5.97 22.08-5.97 4.62 0 9.37.47 14.25 1.41-.26-5.82-1.89-9.93-4.88-12.33-3-2.4-6.93-3.59-11.81-3.59-3.77 0-7.36.63-10.78 1.86a46.13 46.13 0 0 0-9.63 4.82l-4.88-9.12a59.2 59.2 0 0 1 12.39-6.17 39.66 39.66 0 0 1 13.42-2.31c8.38 0 15.21 2.27 20.47 6.8 5.27 4.53 7.9 11.6 7.9 21.18V95h-11.16zM85.37 76a8.4 8.4 0 0 0 3.21 6.93c2.14 1.71 5.14 2.57 8.99 2.57 5.73 0 10.42-1.82 14.06-5.45 3.64-3.64 5.46-8.28 5.46-13.93v-.26a75.63 75.63 0 0 0-6.1-1.09 48.5 48.5 0 0 0-6.61-.45c-5.91 0-10.55 1.01-13.93 3.02-3.39 2.01-5.08 4.9-5.08 8.66zm74.71-15.53V95h-12.45V30.3h11.17l1.03 10.91a22.76 22.76 0 0 1 8.6-8.22 24.51 24.51 0 0 1 12.19-3.08c.86 0 1.56.02 2.12.06.55.04 1.14.15 1.73.32v12.07c-.94-.34-1.99-.55-3.15-.64a46.1 46.1 0 0 0-3.14-.13 17.7 17.7 0 0 0-12.84 5.13c-3.5 3.44-5.26 8.01-5.26 13.75zm78.57 30.94a30 30 0 0 1-7.13 3.41 28.22 28.22 0 0 1-9.18 1.48c-5.31 0-9.52-1.56-12.64-4.69-3.13-3.13-4.69-7.34-4.69-12.64V40.83H193.2V30.3h11.94l2.05-17.59h10.27V30.3h18.23v10.53h-18.23v36.59c0 5.31 2.7 7.96 8.09 7.96 1.62 0 3.19-.32 4.69-.96 1.5-.64 2.8-1.31 3.92-1.99l4.49 8.98zm73.56 4.88c-6.42 0-12.13-1.43-17.14-4.3a31 31 0 0 1-11.81-11.94c-2.87-5.1-4.3-10.89-4.3-17.4 0-6.5 1.43-12.3 4.3-17.39a31.08 31.08 0 0 1 11.81-11.94c5-2.87 10.72-4.3 17.14-4.3s12.13 1.43 17.14 4.3 8.94 6.85 11.81 11.94c2.87 5.09 4.3 10.89 4.3 17.39 0 6.51-1.44 12.3-4.3 17.4a31.08 31.08 0 0 1-11.81 11.94c-5.01 2.87-10.72 4.3-17.14 4.3zm0-10.92c4.02 0 7.57-.96 10.65-2.89s5.5-4.6 7.25-8.03a25.58 25.58 0 0 0 2.63-11.81c0-4.44-.88-8.38-2.63-11.81a20.02 20.02 0 0 0-7.25-8.03 19.74 19.74 0 0 0-10.65-2.89c-4.02 0-7.57.97-10.65 2.89a20.11 20.11 0 0 0-7.26 8.03 25.58 25.58 0 0 0-2.63 11.81c0 4.45.88 8.39 2.63 11.81s4.18 6.1 7.26 8.03 6.63 2.89 10.65 2.89zm84.73-44.54h-19.52V95h-12.45V40.83h-10.02V30.3h10.02v-9.5c0-6.08 1.82-11.06 5.45-14.96C374.07 1.95 379.44 0 386.54 0c2.91 0 5.65.47 8.21 1.41 2.57.95 5.05 2.27 7.45 3.98l-6.04 8.86a27.46 27.46 0 0 0-4.56-2.38 13.09 13.09 0 0 0-4.94-.96c-2.48 0-4.64.79-6.48 2.37-1.84 1.59-2.76 4.13-2.76 7.64v9.37h19.52v10.54zM480 91.41a29.92 29.92 0 0 1-7.12 3.41 28.22 28.22 0 0 1-9.18 1.48c-5.31 0-9.52-1.56-12.65-4.69-3.13-3.13-4.69-7.34-4.69-12.64V40.83h-11.81V30.3h11.94l2.05-17.59h10.27V30.3h18.23v10.53h-18.23v36.59c0 5.31 2.7 7.96 8.09 7.96 1.62 0 3.18-.32 4.69-.96a30.8 30.8 0 0 0 3.91-1.99l4.5 8.98zm26.18-32.22V95h-12.45V1.29h12.58v38.25a24.4 24.4 0 0 1 8.92-7.64 25.43 25.43 0 0 1 11.88-2.89c7.27 0 13.14 2.37 17.58 7.13 4.45 4.75 6.68 11.49 6.68 20.22V95h-12.45V56.36c0-5.22-1.35-9.26-4.04-12.13-2.7-2.87-6.36-4.3-10.98-4.3-3.25 0-6.23.81-8.92 2.44a17.64 17.64 0 0 0-6.42 6.74 20.44 20.44 0 0 0-2.38 10.08zM627.5 86.4a40.7 40.7 0 0 1-11.81 7.13 39.23 39.23 0 0 1-15.02 2.89c-7.02 0-13.11-1.43-18.29-4.3a29.54 29.54 0 0 1-11.94-12c-2.78-5.14-4.17-11.04-4.17-17.71 0-6.59 1.41-12.39 4.24-17.4a30.8 30.8 0 0 1 11.55-11.74 31.89 31.89 0 0 1 16.3-4.24c6.17 0 11.6 1.31 16.31 3.92a28.57 28.57 0 0 1 11.11 10.97c2.7 4.71 4.04 10.23 4.04 16.56 0 1.37-.06 2.55-.19 3.53s-.32 1.9-.58 2.76h-50.07c.85 5.99 3.23 10.61 7.12 13.86s9.01 4.88 15.34 4.88c3.93 0 7.57-.81 10.91-2.44a36.67 36.67 0 0 0 8.22-5.26l6.93 8.59zm-28.88-46.47c-4.79 0-8.99 1.48-12.58 4.43-3.59 2.96-5.86 7.08-6.8 12.39h37.74c-.6-5.56-2.55-9.76-5.84-12.58s-7.48-4.24-12.52-4.24zm112.97 45.19c7.1 0 12.69-2.14 16.75-6.42 4.06-4.28 6.1-10.06 6.1-17.33V7.71h12.97V61.5c0 10.87-3.19 19.41-9.56 25.61-6.38 6.21-15.13 9.31-26.25 9.31s-19.86-3.1-26.19-9.31c-6.34-6.2-9.5-14.74-9.5-25.61V7.71h12.97v53.66c0 7.27 2.03 13.05 6.1 17.33 4.05 4.28 9.59 6.42 16.61 6.42zm84.21 11.29a51.78 51.78 0 0 1-18.87-3.47c-5.99-2.31-10.83-5.39-14.51-9.24l7.32-8.6a37.52 37.52 0 0 0 12.13 7.45 38.44 38.44 0 0 0 13.93 2.69c5.65 0 10.21-1.09 13.67-3.27 3.47-2.18 5.2-5.2 5.2-9.05 0-3.51-1.24-6.47-3.72-8.86-2.49-2.39-6.72-4.4-12.71-6.03l-12.07-3.21c-7.79-2.05-13.46-4.96-17.01-8.73-3.55-3.76-5.32-8.68-5.32-14.76a22.1 22.1 0 0 1 3.98-13.09 26.16 26.16 0 0 1 10.98-8.79c4.66-2.1 9.95-3.14 15.85-3.14 6.25 0 12.11 1.18 17.59 3.53a46.09 46.09 0 0 1 14.5 9.82l-7.83 8.47a44.5 44.5 0 0 0-11.49-7.9 29.79 29.79 0 0 0-12.64-2.76c-5.39 0-9.8 1.14-13.23 3.4a10.74 10.74 0 0 0-5.13 9.44c0 3.68 1.22 6.55 3.66 8.6 2.44 2.06 6.18 3.77 11.24 5.14l13.48 3.72c7.79 2.14 13.48 5.13 17.07 8.99 3.59 3.85 5.39 8.65 5.39 14.38 0 5.05-1.33 9.48-3.98 13.29s-6.34 6.76-11.04 8.86c-4.71 2.08-10.19 3.12-16.44 3.12zM904.41 95l-8.47-21.95h-40.31L847.16 95h-13.1l34.92-87.29h13.99L917.76 95h-13.35zm-44.55-32.86h31.84l-15.92-40.95-15.92 40.95zM984.51 95V18.62h-29.4V7.71h71.76v10.91h-29.4V95h-12.96zm89.1 1.41c-8.21 0-15.49-1.92-21.82-5.78a40.9 40.9 0 0 1-14.96-15.92c-3.64-6.76-5.45-14.55-5.45-23.37s1.82-16.61 5.45-23.37a40.84 40.84 0 0 1 14.96-15.92c6.33-3.85 13.61-5.78 21.82-5.78 8.22 0 15.51 1.92 21.89 5.78a40.77 40.77 0 0 1 15.02 15.92c3.64 6.76 5.46 14.55 5.46 23.37s-1.82 16.61-5.46 23.37a40.7 40.7 0 0 1-15.02 15.92c-6.38 3.86-13.67 5.78-21.89 5.78zm0-11.29c5.65 0 10.68-1.44 15.09-4.3a29.18 29.18 0 0 0 10.34-11.88c2.48-5.05 3.72-10.91 3.72-17.59s-1.24-12.54-3.72-17.59c-2.49-5.05-5.93-9-10.34-11.88a27.02 27.02 0 0 0-15.09-4.3 26.8 26.8 0 0 0-15.02 4.3 29.39 29.39 0 0 0-10.27 11.88c-2.49 5.05-3.72 10.91-3.72 17.59s1.24 12.54 3.72 17.59c2.48 5.05 5.91 9 10.27 11.88a26.78 26.78 0 0 0 15.02 4.3zM1134.2 95V7.71h30.68c8.56 0 16.05 1.82 22.47 5.45a38.17 38.17 0 0 1 14.96 15.27c3.55 6.55 5.32 14.19 5.32 22.92s-1.78 16.37-5.32 22.92a37.98 37.98 0 0 1-14.96 15.27c-6.42 3.64-13.91 5.45-22.47 5.45h-30.68zm12.97-10.91h17.72c6.16 0 11.45-1.35 15.85-4.04a26.45 26.45 0 0 0 10.14-11.37c2.35-4.88 3.53-10.65 3.53-17.33s-1.18-12.46-3.53-17.33a26.57 26.57 0 0 0-10.14-11.37c-4.41-2.69-9.69-4.04-15.85-4.04h-17.72v65.48zM1285.31 95l-8.47-21.95h-40.31L1228.05 95h-13.1l34.92-87.29h13.99l34.8 87.29h-13.35zm-44.55-32.86h31.84l-15.92-40.95-15.92 40.95zm97.69-1.8V95h-12.97V60.34L1294.8 7.71h15.28l21.95 40.31 21.95-40.31H1369l-30.55 52.63zM1472.74 95l-46.6-66.88V95h-12.2V7.71h12.07l46.73 66.88V7.71h12.07V95h-12.07zm90.63-8.6a40.7 40.7 0 0 1-11.81 7.13 39.23 39.23 0 0 1-15.02 2.89c-7.02 0-13.11-1.43-18.29-4.3a29.54 29.54 0 0 1-11.94-12c-2.78-5.14-4.17-11.04-4.17-17.71 0-6.59 1.41-12.39 4.24-17.4a30.8 30.8 0 0 1 11.55-11.74 31.89 31.89 0 0 1 16.3-4.24c6.17 0 11.6 1.31 16.31 3.92a28.57 28.57 0 0 1 11.11 10.97c2.7 4.71 4.04 10.23 4.04 16.56 0 1.37-.06 2.55-.19 3.53s-.32 1.9-.58 2.76h-50.07c.85 5.99 3.23 10.61 7.12 13.86s9.01 4.88 15.34 4.88c3.93 0 7.57-.81 10.91-2.44a36.67 36.67 0 0 0 8.22-5.26l6.93 8.59zm-28.88-46.47c-4.79 0-8.99 1.48-12.58 4.43s-5.86 7.08-6.8 12.39h37.74c-.6-5.56-2.55-9.76-5.84-12.58s-7.48-4.24-12.52-4.24zm85.75 51.48a30 30 0 0 1-7.13 3.41 28.22 28.22 0 0 1-9.18 1.48c-5.31 0-9.52-1.56-12.64-4.69-3.13-3.13-4.69-7.34-4.69-12.64V40.83h-11.81V30.3h11.94l2.05-17.59h10.27V30.3h18.23v10.53h-18.23v36.59c0 5.31 2.7 7.96 8.09 7.96 1.62 0 3.19-.32 4.69-.96 1.5-.64 2.8-1.31 3.92-1.99l4.49 8.98zm68.17 3.59-14.38-50.71L1660.04 95h-13.22l-19.77-64.7h12.45l14.38 52.12L1668 30.3h12.45l14.38 52.12 14.5-52.12h12.07L1701.64 95h-13.23zm74.08 1.29c-6.42 0-12.13-1.43-17.14-4.3-5-2.87-8.94-6.85-11.81-11.94-2.87-5.1-4.3-10.89-4.3-17.4 0-6.5 1.43-12.3 4.3-17.39a31.08 31.08 0 0 1 11.81-11.94c5.01-2.87 10.72-4.3 17.14-4.3s12.13 1.43 17.14 4.3 8.94 6.85 11.81 11.94c2.87 5.09 4.3 10.89 4.3 17.39 0 6.51-1.43 12.3-4.3 17.4a31.08 31.08 0 0 1-11.81 11.94c-5.01 2.87-10.73 4.3-17.14 4.3zm0-10.92c4.02 0 7.57-.96 10.65-2.89 3.08-1.93 5.5-4.6 7.25-8.03a25.58 25.58 0 0 0 2.63-11.81c0-4.44-.88-8.38-2.63-11.81a20.02 20.02 0 0 0-7.25-8.03 19.74 19.74 0 0 0-10.65-2.89c-4.02 0-7.58.97-10.66 2.89a20.02 20.02 0 0 0-7.25 8.03 25.58 25.58 0 0 0-2.63 11.81c0 4.45.88 8.39 2.63 11.81a20.02 20.02 0 0 0 7.25 8.03 19.64 19.64 0 0 0 10.66 2.89zm61.74-24.9V95h-12.46V30.3h11.17l1.03 10.91c2.06-3.42 4.92-6.16 8.6-8.22s7.74-3.08 12.2-3.08c.85 0 1.56.02 2.11.06.56.04 1.14.15 1.73.32v12.07c-.94-.34-1.99-.55-3.14-.64-1.16-.08-2.2-.13-3.15-.13a17.7 17.7 0 0 0-12.84 5.13c-3.5 3.44-5.25 8.01-5.25 13.75zM1904.34 95l-29.27-33.38V95h-12.46V1.29h12.46v55.46l28.63-26.45h15.15l-30.43 28.24L1920 95h-15.66z"/></svg>